# xmcd
#
# Track frame offsets:
# 150
# 32690
# 51782
# 94522
# 107242
# 147775
# 162567
# 177580
# 191277
# 214725
# 224950
# 237440
# 252055
# 308075
# 320840
#
# Disc length: 4435 seconds
#
#
# Revision: 4
# Processed by: cddbd v1.5.2PL0 Copyright (c) Steve Scherf et al.
# Submitted via: FreeRIP 2.945 
#
DISCID=e011510f
DTITLE=Jazz Station - Juke Box Hits - Volume 1
DYEAR=2001
DGENRE=Jazz
TTITLE0=Miles Davis - Walkin'
TTITLE1=Stan Kenton - Gone with the Wind
TTITLE2=Charlie Mingus - What Love
TTITLE3=Charlie Parker - April in Paris
TTITLE4=John Coltrane - Blue Train
TTITLE5=Art Tatum - Deep Purple
TTITLE6=Earl Hines - Rock and Rye
TTITLE7=Coleman Hawkins - Bouncing with Bean
TTITLE8=Miles Davis - 'Round Midnight
TTITLE9=Art Tatum - I Got Rhythm
TTITLE10=Earl Hines - Maple Leaf Rag
TTITLE11=Artie Shaw - Day after Day
TTITLE12=Charlie Mingus - I'll Remember April
TTITLE13=Count Basie - Jive at Five
TTITLE14=Coleman Hawkins - The Darktown Strutters' Ball
EXTD=YEAR: 2001
EXTT0=
EXTT1=
EXTT2=
EXTT3=
EXTT4=
EXTT5=
EXTT6=
EXTT7=
EXTT8=
EXTT9=
EXTT10=
EXTT11=
EXTT12=
EXTT13=
EXTT14=
PLAYORDER=
